<svg width="224" height="71" viewBox="0 0 224 71" fill="none" xmlns="http://www.w3.org/2000/svg">
<path d="M80.432 46V24.048H84.4L93.776 37.008C93.8827 37.136 94.0107 37.3173 94.16 37.552C94.3093 37.7653 94.448 37.9787 94.576 38.192C94.704 38.4053 94.7893 38.576 94.832 38.704H94.992C94.992 38.4053 94.992 38.1173 94.992 37.84C94.992 37.5627 94.992 37.2853 94.992 37.008V24.048H98.992V46H95.056L85.648 32.944C85.4773 32.688 85.2747 32.3787 85.04 32.016C84.8267 31.632 84.6773 31.3653 84.592 31.216H84.432C84.432 31.4933 84.432 31.7813 84.432 32.08C84.432 32.3573 84.432 32.6453 84.432 32.944V46H80.432ZM110.75 46.384C108.958 46.384 107.464 46.0747 106.27 45.456C105.075 44.816 104.179 43.8453 103.582 42.544C102.984 41.2427 102.686 39.5893 102.686 37.584C102.686 35.5573 102.984 33.904 103.582 32.624C104.179 31.3227 105.075 30.3627 106.27 29.744C107.464 29.104 108.958 28.784 110.75 28.784C112.371 28.784 113.726 29.0933 114.814 29.712C115.923 30.3093 116.755 31.2373 117.31 32.496C117.864 33.7547 118.142 35.3867 118.142 37.392V38.544H106.686C106.728 39.5893 106.888 40.4747 107.166 41.2C107.443 41.904 107.87 42.4373 108.446 42.8C109.043 43.1413 109.822 43.312 110.782 43.312C111.272 43.312 111.731 43.248 112.158 43.12C112.584 42.992 112.958 42.8 113.278 42.544C113.598 42.2667 113.843 41.9253 114.014 41.52C114.206 41.1147 114.302 40.6453 114.302 40.112H118.142C118.142 41.1787 117.95 42.1067 117.566 42.896C117.203 43.6853 116.68 44.336 115.998 44.848C115.336 45.36 114.558 45.744 113.662 46C112.766 46.256 111.795 46.384 110.75 46.384ZM106.75 35.792H114.078C114.078 35.088 113.992 34.4907 113.822 34C113.672 33.5093 113.448 33.104 113.15 32.784C112.872 32.464 112.531 32.24 112.126 32.112C111.72 31.9627 111.262 31.888 110.75 31.888C109.918 31.888 109.214 32.0267 108.638 32.304C108.083 32.5813 107.656 33.008 107.358 33.584C107.059 34.16 106.856 34.896 106.75 35.792ZM119.539 46L125.555 37.328L119.955 29.168H124.691L128.019 34.384H128.211L131.603 29.168H136.051L130.419 37.232L136.371 46H131.699L127.955 40.176H127.763L123.987 46H119.539ZM143.216 46.384C142.17 46.384 141.349 46.1813 140.752 45.776C140.154 45.3493 139.728 44.816 139.472 44.176C139.237 43.5147 139.12 42.8427 139.12 42.16V32.368H137.104V29.168H139.216L139.92 24.464H143.024V29.168H145.936V32.368H143.024V41.776C143.024 42.224 143.141 42.576 143.376 42.832C143.61 43.0667 143.962 43.184 144.432 43.184H145.936V45.872C145.722 45.9573 145.456 46.032 145.135 46.096C144.837 46.1813 144.517 46.2453 144.176 46.288C143.834 46.352 143.514 46.384 143.216 46.384ZM149.182 46V24.048H157.982C160.201 24.048 162.099 24.4427 163.678 25.232C165.257 26.0213 166.473 27.2267 167.326 28.848C168.179 30.448 168.606 32.5067 168.606 35.024C168.606 37.52 168.179 39.5787 167.326 41.2C166.473 42.8213 165.257 44.0267 163.678 44.816C162.099 45.6053 160.201 46 157.982 46H149.182ZM153.342 42.448H157.982C159.006 42.448 159.913 42.2987 160.702 42C161.491 41.7013 162.153 41.264 162.686 40.688C163.219 40.0907 163.625 39.3547 163.902 38.48C164.179 37.584 164.318 36.5493 164.318 35.376V34.704C164.318 33.5093 164.179 32.4747 163.902 31.6C163.625 30.704 163.219 29.968 162.686 29.392C162.153 28.7947 161.491 28.3467 160.702 28.048C159.913 27.7493 159.006 27.6 157.982 27.6H153.342V42.448ZM176.431 46.384C175.962 46.384 175.418 46.32 174.799 46.192C174.202 46.0853 173.615 45.872 173.039 45.552C172.485 45.232 172.026 44.7627 171.663 44.144C171.301 43.504 171.119 42.672 171.119 41.648C171.119 40.496 171.375 39.5467 171.887 38.8C172.399 38.032 173.114 37.4347 174.031 37.008C174.97 36.56 176.079 36.2507 177.359 36.08C178.661 35.888 180.079 35.792 181.615 35.792V34.416C181.615 33.9253 181.541 33.488 181.391 33.104C181.242 32.72 180.965 32.4213 180.559 32.208C180.175 31.9733 179.589 31.856 178.799 31.856C178.01 31.856 177.391 31.952 176.943 32.144C176.495 32.336 176.186 32.5707 176.015 32.848C175.845 33.1253 175.759 33.4133 175.759 33.712V34.16H171.983C171.962 34.0533 171.951 33.9467 171.951 33.84C171.951 33.7333 171.951 33.6053 171.951 33.456C171.951 32.496 172.239 31.664 172.815 30.96C173.391 30.256 174.191 29.7227 175.215 29.36C176.239 28.976 177.423 28.784 178.767 28.784C180.303 28.784 181.562 28.9973 182.543 29.424C183.546 29.8507 184.293 30.4587 184.783 31.248C185.274 32.0373 185.519 32.9973 185.519 34.128V42.064C185.519 42.4693 185.637 42.7573 185.871 42.928C186.106 43.0987 186.362 43.184 186.639 43.184H187.663V45.872C187.45 45.9573 187.141 46.0533 186.735 46.16C186.33 46.288 185.829 46.352 185.231 46.352C184.677 46.352 184.175 46.256 183.727 46.064C183.301 45.8933 182.938 45.6373 182.639 45.296C182.341 44.9547 182.127 44.5493 181.999 44.08H181.807C181.445 44.528 181.007 44.9333 180.495 45.296C180.005 45.6373 179.418 45.904 178.735 46.096C178.074 46.288 177.306 46.384 176.431 46.384ZM177.615 43.184C178.255 43.184 178.821 43.088 179.311 42.896C179.823 42.704 180.239 42.4373 180.559 42.096C180.901 41.7547 181.157 41.3387 181.327 40.848C181.519 40.3573 181.615 39.824 181.615 39.248V38.48C180.442 38.48 179.354 38.5547 178.351 38.704C177.37 38.8533 176.581 39.1307 175.983 39.536C175.407 39.9413 175.119 40.5173 175.119 41.264C175.119 41.648 175.205 41.9893 175.375 42.288C175.567 42.5653 175.845 42.7893 176.207 42.96C176.591 43.1093 177.061 43.184 177.615 43.184ZM196.453 46.384C195.237 46.384 194.17 46.256 193.253 46C192.335 45.7227 191.567 45.3493 190.949 44.88C190.33 44.4107 189.861 43.8667 189.541 43.248C189.242 42.608 189.093 41.9147 189.093 41.168C189.093 41.0613 189.093 40.9653 189.093 40.88C189.114 40.7947 189.125 40.7307 189.125 40.688H192.965C192.965 40.7307 192.965 40.7733 192.965 40.816C192.965 40.8587 192.965 40.9013 192.965 40.944C192.986 41.52 193.167 41.9893 193.509 42.352C193.85 42.6933 194.298 42.9387 194.853 43.088C195.407 43.2373 195.994 43.312 196.613 43.312C197.167 43.312 197.69 43.2587 198.181 43.152C198.693 43.024 199.109 42.832 199.429 42.576C199.77 42.2987 199.941 41.9467 199.941 41.52C199.941 40.9653 199.727 40.5387 199.301 40.24C198.874 39.9413 198.309 39.696 197.605 39.504C196.922 39.312 196.186 39.1093 195.397 38.896C194.693 38.704 193.989 38.4907 193.285 38.256C192.581 38.0213 191.941 37.7227 191.365 37.36C190.81 36.9973 190.351 36.528 189.989 35.952C189.647 35.376 189.477 34.6613 189.477 33.808C189.477 32.976 189.658 32.2507 190.021 31.632C190.383 31.0133 190.885 30.5013 191.525 30.096C192.165 29.6693 192.922 29.3493 193.797 29.136C194.671 28.9227 195.621 28.816 196.645 28.816C197.647 28.816 198.554 28.9227 199.365 29.136C200.197 29.3493 200.911 29.6587 201.509 30.064C202.127 30.448 202.597 30.928 202.917 31.504C203.258 32.0587 203.429 32.6773 203.429 33.36C203.429 33.5093 203.418 33.6587 203.397 33.808C203.397 33.9573 203.397 34.0427 203.397 34.064H199.589V33.84C199.589 33.4347 199.461 33.0933 199.205 32.816C198.97 32.5173 198.618 32.2827 198.149 32.112C197.701 31.9413 197.135 31.856 196.453 31.856C195.941 31.856 195.493 31.8987 195.109 31.984C194.725 32.0693 194.405 32.1867 194.149 32.336C193.914 32.4853 193.733 32.656 193.605 32.848C193.477 33.04 193.413 33.2533 193.413 33.488C193.413 33.8933 193.573 34.2133 193.893 34.448C194.213 34.6827 194.639 34.8853 195.173 35.056C195.727 35.2267 196.325 35.408 196.965 35.6C197.733 35.8133 198.522 36.0373 199.333 36.272C200.143 36.4853 200.89 36.7627 201.573 37.104C202.277 37.4453 202.842 37.9253 203.269 38.544C203.695 39.1627 203.909 39.984 203.909 41.008C203.909 41.9893 203.717 42.832 203.333 43.536C202.97 44.2187 202.447 44.7733 201.765 45.2C201.103 45.6053 200.314 45.904 199.397 46.096C198.501 46.288 197.519 46.384 196.453 46.384ZM207.205 46V22.864H211.109V31.088H211.333C211.696 30.64 212.122 30.2453 212.613 29.904C213.104 29.5627 213.658 29.296 214.277 29.104C214.917 28.8907 215.621 28.784 216.389 28.784C217.456 28.784 218.394 28.976 219.205 29.36C220.037 29.744 220.688 30.3627 221.157 31.216C221.626 32.0693 221.861 33.2107 221.861 34.64V46H217.925V35.344C217.925 34.7467 217.85 34.256 217.701 33.872C217.573 33.4667 217.37 33.1467 217.093 32.912C216.837 32.656 216.517 32.4747 216.133 32.368C215.749 32.2613 215.322 32.208 214.853 32.208C214.149 32.208 213.509 32.3787 212.933 32.72C212.378 33.0613 211.93 33.5307 211.589 34.128C211.269 34.7253 211.109 35.4187 211.109 36.208V46H207.205Z" fill="#DDDDDD"/>
<path d="M62 48.6598V21.9932C61.9988 20.8241 61.6902 19.6759 61.1051 18.6637C60.5201 17.6515 59.6791 16.811 58.6667 16.2265L35.3333 2.89316C34.3199 2.30804 33.1702 2 32 2C30.8298 2 29.6801 2.30804 28.6667 2.89316L5.33333 16.2265C4.32087 16.811 3.47993 17.6515 2.89487 18.6637C2.30981 19.6759 2.0012 20.8241 2 21.9932V48.6598C2.0012 49.8289 2.30981 50.9771 2.89487 51.9893C3.47993 53.0014 4.32087 53.842 5.33333 54.4265L28.6667 67.7598C29.6801 68.345 30.8298 68.653 32 68.653C33.1702 68.653 34.3199 68.345 35.3333 67.7598L58.6667 54.4265C59.6791 53.842 60.5201 53.0014 61.1051 51.9893C61.6902 50.9771 61.9988 49.8289 62 48.6598Z" stroke="#4462AB" stroke-width="3" stroke-linecap="round" stroke-linejoin="round"/>
<path d="M17 9.35983L32 18.0265L47 9.35983" stroke="#4462AB" stroke-width="3" stroke-linecap="round" stroke-linejoin="round"/>
<path d="M17 61.2932V43.9932L2 35.3265" stroke="#4462AB" stroke-width="3" stroke-linecap="round" stroke-linejoin="round"/>
<path d="M62 35.3265L47 43.9932V61.2932" stroke="#4462AB" stroke-width="3" stroke-linecap="round" stroke-linejoin="round"/>
<path d="M2.90002 18.5265L32 35.3598L61.1 18.5265" stroke="#4462AB" stroke-width="3" stroke-linecap="round" stroke-linejoin="round"/>
<path d="M32 68.9265V35.3265" stroke="#4462AB" stroke-width="3" stroke-linecap="round" stroke-linejoin="round"/>
</svg>
